<?xml version="1.0" encoding="UTF-8"?>
<svg id="Layer_1" data-name="Layer 1" xmlns="http://www.w3.org/2000/svg" viewBox="0 0 79 79">
  <defs>
    <style>
      .cls-1 {
        fill: #4e4e4e;
      }
    </style>
  </defs>
  <path class="cls-1" d="m39.5,0C17.68,0,0,17.68,0,39.5s17.68,39.5,39.5,39.5,39.5-17.68,39.5-39.5S61.32,0,39.5,0Zm23.99,62.57H14.99c-3.28,0-5.42-3.43-3.97-6.37L35.07,7.17c1.61-3.29,6.29-3.31,7.93-.03l24.45,49.03c1.47,2.95-.67,6.4-3.96,6.4Z"/>
  <g>
    <path class="cls-1" d="m39.12,56.32c-.46-.2-.96-.32-1.36-.6-1.14-.79-1.51-2.3-.94-3.55.58-1.28,1.95-1.96,3.35-1.66,1.32.28,2.29,1.52,2.28,2.9-.01,1.37-.99,2.57-2.34,2.85-.07.02-.14.04-.22.06h-.79Z"/>
    <path class="cls-1" d="m36.57,35.49c0-3.24,0-6.48,0-9.72,0-1.72,1.36-3.03,3.06-2.98,1.5.05,2.76,1.28,2.83,2.78,0,.1,0,.2,0,.29,0,6.44,0,12.88,0,19.32,0,1.43-.82,2.58-2.09,2.95-1.91.56-3.79-.82-3.8-2.82-.01-3.27,0-6.55,0-9.82Z"/>
  </g>
</svg>