<?xml version="1.0" encoding="utf-8"?>
<!-- Generator: Adobe Illustrator 27.3.1, SVG Export Plug-In . SVG Version: 6.00 Build 0)  -->
<svg version="1.1" id="Layer_1" xmlns="http://www.w3.org/2000/svg" xmlns:xlink="http://www.w3.org/1999/xlink" x="0px" y="0px"
	 viewBox="0 0 90.6 63.5" style="enable-background:new 0 0 90.6 63.5;" xml:space="preserve">
<style type="text/css">
	.st0{fill:black;}
	.st1{fill:#FFFFFF;}
	.st2{fill:#FFE3D0;}
</style>
<g id="Body">
	<path class="st0" d="M18.8,53.2c0,3.5-1.2,6-5.1,6s-6.9-2.8-6.9-6.2s3.1-6.2,6.9-6.2S18.8,49.7,18.8,53.2z"/>
	<path class="st0" d="M67.7,50.9c0,5.1-6.4,12.6-10.3,12.6s-3.8-5.7-3.8-10.8s3.2-9.3,7.1-9.3S67.7,45.8,67.7,50.9z"/>
	<ellipse class="st0" cx="20.4" cy="47.5" rx="2.7" ry="2.5"/>
	<ellipse class="st0" cx="62.3" cy="43.9" rx="1.1" ry="2.7"/>
	<path class="st0" d="M74.1,56.4H60.6c-1.9-4.3-0.1-9.4,4.2-11.4c4.3-2.1,4.6,2.1,6.7,6.5C72.4,53.4,73.5,55,74.1,56.4L74.1,56.4z"
		/>
</g>
<path class="st0" d="M71.5,39.6c0,12.3-15,22.3-33.4,22.3S4.7,51.9,4.7,39.6s14.7-29.3,33.2-29.3S71.5,27.3,71.5,39.6z"/>
<path class="st0" d="M45.6,12.7c0,0,1.7-4.6,8-7.3c4.9-2.2,8.6-2.6,10.4-2.7c0.6,0,1.1,0.3,1.2,0.9c0.5,2.7,2.8,13.9,2,18.1
	c-1.1,5.4-6.6,8-6.6,8L45.6,12.7L45.6,12.7z"/>
<path class="st0" d="M29.5,13.2c0.2-0.3,0.2-0.7,0-0.9c-1-0.9-3.6-3.1-8.6-4.7c-5.2-1.7-9.8-2.1-11.4-2.2c-0.3,0-0.6,0.2-0.7,0.6
	C8.4,8.2,7,16.7,7.8,21.1c0.9,4.5,5.2,7.4,6.7,8.3c0.3,0.2,0.6,0.1,0.9-0.1L29.5,13.2L29.5,13.2z"/>
<path class="st1" d="M41.5,42.4c0,1.2-1,2.2-2.2,2.2s-2.2-1-2.2-2.2s1.2-1.4,2.4-1.4S41.6,41.2,41.5,42.4L41.5,42.4z"/>
<path class="st0" d="M59,42.2c1,0,1-1.6,0-1.6S57.9,42.2,59,42.2L59,42.2z"/>
<path class="st0" d="M57.2,42.6c6.3-3,14-3,20.2,0.1c0.9,0.5,1.8-1,0.8-1.4c-6.8-3.3-15-3.4-21.9-0.1C55.4,41.7,56.3,43.1,57.2,42.6
	C57.2,42.6,57.2,42.6,57.2,42.6z"/>
<path class="st0" d="M54.5,47.5c6.3-3,14-3,20.3,0.1c0.9,0.5,1.8-1,0.8-1.4c-6.8-3.3-15-3.4-21.9-0.1C52.7,46.6,53.6,48,54.5,47.5
	C54.5,47.5,54.5,47.5,54.5,47.5z"/>
<path class="st0" d="M22.3,41.8c-6.9-3.3-15.1-3.2-21.9,0.1c-0.9,0.5-0.1,1.9,0.8,1.4c6.3-3.1,13.9-3.1,20.2-0.1
	C22.4,43.6,23.3,42.2,22.3,41.8L22.3,41.8z"/>
<path class="st0" d="M23.4,47.2C16.5,43.9,8.3,44,1.5,47.3c-0.9,0.5-0.1,1.9,0.8,1.4c6.3-3.1,13.9-3.1,20.2-0.1
	C23.5,49.1,24.4,47.7,23.4,47.2L23.4,47.2z"/>
<path class="st1" d="M58.2,31.2c0,2.1-0.6,3.9-1.7,5.3c-1.1,1.6-2.8,2.5-4.6,2.5s-3.5-1-4.6-2.5c-1-1.4-1.7-3.3-1.7-5.3
	c0-4.4,2.8-7.9,6.2-7.9S58.2,26.9,58.2,31.2z"/>
<path class="st1" d="M32.1,31.2c0,2.4-0.9,4.6-2.2,6c-1.1,1.2-2.5,1.9-4,1.9c-2.1,0-4-1.3-5.1-3.3c-0.7-1.3-1.2-2.9-1.2-4.6
	c0-4.4,2.8-7.9,6.2-7.9S32.1,26.9,32.1,31.2L32.1,31.2z"/>
<circle class="st0" cx="29.4" cy="26.6" r="4.4"/>
<circle class="st0" cx="56" cy="26.1" r="4.3"/>
<g>
	<path class="st2" d="M90.6,8.9c0,0.2,0,0.3-0.1,0.5c-0.1,0.8-0.4,1.5-0.7,2.2c-0.4,1-1.1,1.8-1.8,2.4c-0.6,0.6-1.2,1.1-1.9,1.5
		c-0.5,0.4-1,0.9-1.4,1.5c-0.3,0.5-0.5,1-0.5,1.5c0,0.3-0.1,0.7-0.1,1h-4.3c0,0,0,0,0,0c0-0.5,0-1.1,0-1.6c0.1-1.3,0.5-2.5,1.2-3.5
		c0.2-0.3,0.5-0.5,0.7-0.7c0.6-0.5,1.2-1,1.8-1.5c0.4-0.4,0.8-0.9,1-1.4c0.2-0.4,0.4-0.8,0.4-1.3c0-0.2,0-0.5,0-0.7
		c0-0.5-0.1-0.9-0.2-1.4c-0.3-0.8-0.8-1.4-1.5-1.7c-0.6-0.3-1.2-0.4-1.9-0.3c-0.4,0.1-0.8,0.2-1.2,0.3c-0.5,0.2-0.9,0.7-1.2,1.2
		c-0.4,0.6-0.6,1.2-0.7,1.9c-0.1,0.4-0.1,0.7,0,1.1c0,0,0,0,0,0.1c-1.6,0-3.3,0-4.9,0.1c0,0,0,0,0,0c0-0.6,0-1.2,0.1-1.8
		c0-0.6,0.1-1.1,0.2-1.6C73.9,5.1,74.4,4,75.2,3c0.6-0.8,1.3-1.4,2.1-1.9c0.7-0.4,1.4-0.7,2.1-0.8c0.7-0.1,1.3-0.2,2-0.2
		c0,0,0.1,0,0.1,0c0.4,0,0.7,0,1.1,0c0,0,0,0,0.1,0c0.5,0,1,0.1,1.5,0.2c0.7,0.1,1.3,0.3,2,0.6c0.9,0.4,1.7,1,2.4,1.8
		c1.2,1.2,1.8,2.8,1.9,4.6c0,0.2,0,0.3,0,0.5L90.6,8.9L90.6,8.9z"/>
	<path class="st2" d="M81.9,21.7c0.7,0,1.3,0.2,1.8,0.6c0.3,0.3,0.6,0.7,0.7,1.2c0.1,0.6-0.1,1.1-0.4,1.6c-0.4,0.5-0.8,0.7-1.4,0.9
		c-0.7,0.1-1.3,0.1-2-0.3c-0.4-0.2-0.7-0.6-0.8-1c-0.2-0.7-0.2-1.3,0.2-1.9c0.3-0.5,0.8-0.8,1.4-0.9C81.6,21.8,81.8,21.7,81.9,21.7
		L81.9,21.7z"/>
</g>
</svg>
