<?xml version="1.0" encoding="UTF-8"?>
<svg id="Layer_1" data-name="Layer 1" xmlns="http://www.w3.org/2000/svg" viewBox="0 0 100.73 402.02">
  <defs>
    <style>
      .cls-1 {
        fill: #ffe8d7;
      }
    </style>
  </defs>
  <path class="cls-1" d="m54.21,401.36c-1.2-5.03-2.11-10.16-3.67-15.09-6.54-20.73-8.76-41.93-8.88-63.63-.36-62.39-1.33-124.77-1.96-187.16-.03-3.07-1.08-5.54-2.72-7.86-1.02-1.45-1.12-2.75-.72-4.42.97-4.06,1.71-8.18,2.56-12.26.3-1.41-.1-2.35-1.47-3.01-3.28-1.59-6.36-3.76-9.78-4.84-4.3-1.36-8.77-.41-13.12.64.34.93.72,1.75.93,2.61.66,2.78-.77,5.33-3.37,6.1-3.26.97-8.03-.77-10.29-3.75-2.15-2.84-2.31-6.42-.34-9.62,1.44-2.34,3.84-3.31,6.37-3.41,3.58-.14,7.18.17,10.77.29,5.92.2,11.84.44,17.77.58,1.77.04,3.57-.15,2.57-2.83-.13-.36.35-.9.36-1.37.03-1.43,0-2.86-.05-4.29-.02-.81-.24-1.64-.15-2.44.24-2.22.87-4.42.83-6.63-.17-9.8-.51-19.59-.83-29.38-.04-1.06-.21-2.19-.62-3.16-.9-2.09-2.17-4.09-.03-6.17.09-.09.08-.33.05-.48-1.05-4.37.51-8.92-1.47-13.34-1.61-3.59-2.44-7.64-2.96-11.57-.32-2.44.58-5.03.93-7.56,1.23-1.38,2.45-2.75,3.68-4.13C42.42,1.26,46.34-.19,50.76.02c10.06.48,15.44,6.43,14.19,16.38-.45,3.59-1.86,7.07-2.96,10.56-.83,2.63-2.06,5.16-.75,7.99.15.33-.33.9-.31,1.35.08,1.39.3,2.77.41,4.15.09,1.13.27,2.3.1,3.41-.44,2.85-1.45,5.66-1.54,8.51-.29,9.54-.32,19.09-.35,28.64,0,1.46.49,2.92.75,4.38.09.49.46,1.12.27,1.45-1.32,2.42-.07,4.79-.13,7.16-.05,1.98.85,2.23,2.1,2.24,4.59.04,9.19.07,13.77-.17,3.84-.2,7.66-.84,11.49-1.18,1.57-.14,3.18-.12,4.76.02,4.66.43,7.37,2.8,8.04,6.87.6,3.62-1.5,7.29-5.25,9.11-.67.33-1.39.6-2.11.78-2.54.63-5.1.83-6.91-1.49-1.68-2.16-1.39-4.53.13-7.06-7.2-1.34-14.09-2.23-20.57,2.32-4.8,3.37-4.91,3.21-3.79,9.01.3,1.56.44,3.19.98,4.66,1.43,3.85,1.79,7.4-.95,10.99-.86,1.12-.69,3.18-.67,4.8.41,34.84.98,69.69,1.27,104.53.29,34.84.55,69.69.27,104.53-.08,10.07-1.86,20.15-3.18,30.18-1.11,8.46-2.68,16.86-4.09,25.27-.15.88-.52,1.73-.79,2.59l-.75-.67Z"/>
</svg>