<svg id="Calque_1" data-name="Calque 1" xmlns="http://www.w3.org/2000/svg" viewBox="0 0 212.64 180.93"><defs><style>.cls-1,.cls-4{fill:#706fad;}.cls-2{fill:none;stroke-width:6px;}.cls-2,.cls-3{stroke:#706fad;stroke-miterlimit:10;}.cls-3,.cls-8{fill:#fff;}.cls-4{isolation:isolate;font-size:37.35px;font-family:SegoeScript, Segoe Script;letter-spacing:-0.05em;}.cls-5{letter-spacing:-0.07em;}.cls-6{letter-spacing:-0.09em;}.cls-7{letter-spacing:-0.05em;}</style></defs><g id="Calque_1-2" data-name="Calque 1"><g id="Body"><path class="cls-1" d="M96.08,127.06c0,6.35-2.3,11-9.31,11s-12.69-5.15-12.69-11.5,5.68-11.5,12.69-11.5S96.08,120.71,96.08,127.06Z" transform="translate(-57.08 -34.12)"/><path class="cls-1" d="M191.08,123.9c0,9.42-11.82,23.16-19,23.16s-7-10.53-7-20,5.82-17,13-17S191.08,114.48,191.08,123.9Z" transform="translate(-57.08 -34.12)"/><ellipse cx="42" cy="82.43" rx="5" ry="4.5"/><ellipse cx="119" cy="75.93" rx="2" ry="5"/><path class="cls-2" d="M227.17,212.06H74a13.91,13.91,0,0,1-13.91-13.91V145.48A13.91,13.91,0,0,1,74,131.57H227.16a13.91,13.91,0,0,1,13.91,13.91v52.67A13.9,13.9,0,0,1,227.17,212.06Z" transform="translate(-57.08 -34.12)"/><path class="cls-1" d="M269.34,134.16c1.07,7.45-.06,14.66-4.53,20.87-5.38,7.49-13.49,12.49-21.57,16.61a4.27,4.27,0,0,1-2.15.5v-9c10.37-5.5,21.92-13.57,20-26.74-.32-2.27.53-4.59,3-5.25C266.11,130.65,269,131.87,269.34,134.16Z" transform="translate(-57.08 -34.12)"/><path class="cls-1" d="M197.83,133.06H173a16,16,0,0,1,7.72-21c8-3.8,8.49,3.89,12.29,11.87C194.72,127.48,196.77,130.48,197.83,133.06Z" transform="translate(-57.08 -34.12)"/></g><path class="cls-1" d="M195.08,102.06c0,22.64-27.53,41-61.5,41s-61.5-18.36-61.5-41,27-54,61-54S195.08,79.42,195.08,102.06Z" transform="translate(-57.08 -34.12)"/><path d="M94.08,20.06" transform="translate(-57.08 -34.12)"/><path class="cls-1" d="M147.42,52.59s3.1-8.39,14.66-13.53a54.27,54.27,0,0,1,19.19-4.93,2,2,0,0,1,2.13,1.68c.89,5,5.21,25.58,3.68,33.25-2,10-12.18,14.71-12.18,14.71Z" transform="translate(-57.08 -34.12)"/><path class="cls-1" d="M117.82,53.46a1.24,1.24,0,0,0-.07-1.73c-1.82-1.71-6.7-5.63-15.82-8.67a80.71,80.71,0,0,0-20.92-4,1.23,1.23,0,0,0-1.28,1c-.77,4.19-3.42,19.88-1.8,28,1.65,8.27,9.58,13.6,12.28,15.2A1.24,1.24,0,0,0,91.78,83Z" transform="translate(-57.08 -34.12)"/><path class="cls-3" d="M140.92,101.56S152,89.31,161.81,89.31s18.86,12.25,18.86,12.25-2.44-2.33-9.44-5.83-11.67-3.5-19.84,0S140.92,101.56,140.92,101.56Z" transform="translate(-57.08 -34.12)"/><path class="cls-3" d="M86.08,100.39S97.17,88.14,107,88.14s18.86,12.25,18.86,12.25-2.44-2.33-9.44-5.83-11.67-3.5-19.84,0S86.08,100.39,86.08,100.39Z" transform="translate(-57.08 -34.12)"/><text class="cls-4" transform="translate(11.47 153.77)">EDU<tspan class="cls-5" x="83.35" y="0">C</tspan><tspan class="cls-6" x="108.16" y="0">A</tspan><tspan class="cls-7" x="135.94" y="0">T</tspan></text><path class="cls-8" d="M178.72,70.28s14.62,5.81,16.36,29.78c0,0,.11-7.53-5.61-17.51S178.72,70.28,178.72,70.28Z" transform="translate(-57.08 -34.12)"/><path class="cls-8" d="M138.08,109.06a4,4,0,0,1-8,0c0-2.21,2.15-2.55,4.36-2.55S138.08,106.85,138.08,109.06Z" transform="translate(-57.08 -34.12)"/><path d="M172,106.92a1.5,1.5,0,0,0,0-3,1.5,1.5,0,0,0,0,3Z" transform="translate(-57.08 -34.12)"/><path class="cls-1" d="M168.74,107.71A43.51,43.51,0,0,1,206,108c1.73.84,3.25-1.74,1.51-2.59a46.74,46.74,0,0,0-40.29-.24c-1.75.83-.23,3.42,1.51,2.59Z" transform="translate(-57.08 -34.12)"/><path class="cls-1" d="M163.74,116.71A43.51,43.51,0,0,1,201,117c1.73.84,3.25-1.74,1.51-2.59a46.74,46.74,0,0,0-40.29-.24c-1.75.83-.23,3.42,1.51,2.59Z" transform="translate(-57.08 -34.12)"/><path class="cls-1" d="M104.52,106.12a46.71,46.71,0,0,0-40.29.24c-1.73.85-.22,3.44,1.51,2.59a43.55,43.55,0,0,1,37.27-.24c1.73.83,3.25-1.76,1.51-2.59Z" transform="translate(-57.08 -34.12)"/><path class="cls-1" d="M106.52,116.12a46.71,46.71,0,0,0-40.29.24c-1.73.85-.22,3.44,1.51,2.59a43.55,43.55,0,0,1,37.27-.24c1.73.83,3.25-1.76,1.51-2.59Z" transform="translate(-57.08 -34.12)"/></g></svg>