<svg id="Calque_1" data-name="Calque 1" xmlns="http://www.w3.org/2000/svg" viewBox="0 0 212.13 180.43"><defs><style>.cls-1,.cls-4{fill:#706fad;}.cls-2{fill:none;stroke-width:5px;}.cls-2,.cls-3{stroke:#706fad;stroke-miterlimit:10;}.cls-3,.cls-8{fill:#fff;}.cls-4{font-size:37.35px;font-family:SegoeScript, Segoe Script;letter-spacing:-0.06em;}.cls-5{letter-spacing:-0.08em;}.cls-6{letter-spacing:-0.1em;}.cls-7{letter-spacing:-0.06em;}</style></defs><g id="Body"><path class="cls-1" d="M100,131c0,6.35-2.3,11-9.31,11S78,136.85,78,130.5,83.68,119,90.69,119,100,124.65,100,131Z" transform="translate(-61.5 -38.07)"/><path class="cls-1" d="M195,127.84c0,9.42-11.82,23.16-19,23.16s-7-10.53-7-19.95S174.82,114,182,114,195,118.42,195,127.84Z" transform="translate(-61.5 -38.07)"/><ellipse cx="41.5" cy="82.43" rx="5" ry="4.5"/><ellipse cx="118.5" cy="75.93" rx="2" ry="5"/><rect class="cls-2" x="2.5" y="97.43" width="181" height="80.5" rx="13.91"/><path class="cls-1" d="M273.26,138.1c1.06,7.45-.07,14.66-4.53,20.87-5.39,7.49-13.49,12.49-21.58,16.61a4.27,4.27,0,0,1-2.15.5v-9c10.37-5.5,21.92-13.57,20-26.74-.32-2.27.53-4.59,3-5.25C270,134.59,272.92,135.81,273.26,138.1Z" transform="translate(-61.5 -38.07)"/><path class="cls-1" d="M201.75,137H177a16,16,0,0,1,7.72-21c8-3.8,8.49,3.89,12.29,11.87C198.64,131.42,200.69,134.42,201.75,137Z" transform="translate(-61.5 -38.07)"/></g><path class="cls-1" d="M199,106c0,22.64-27.53,41-61.5,41S76,128.64,76,106s27-54,61-54S199,83.36,199,106Z" transform="translate(-61.5 -38.07)"/><path d="M98,24" transform="translate(-61.5 -38.07)"/><path class="cls-1" d="M151.34,56.53S154.44,48.14,166,43a54.27,54.27,0,0,1,19.19-4.93,2,2,0,0,1,2.13,1.68c.89,5,5.21,25.58,3.68,33.25-2,10-12.18,14.71-12.18,14.71Z" transform="translate(-61.5 -38.07)"/><path class="cls-1" d="M121.74,57.4a1.24,1.24,0,0,0-.07-1.73C119.85,54,115,50,105.85,47a80.66,80.66,0,0,0-20.91-4,1.24,1.24,0,0,0-1.28,1c-.77,4.2-3.42,19.88-1.81,28,1.66,8.27,9.58,13.6,12.28,15.2A1.25,1.25,0,0,0,95.71,87Z" transform="translate(-61.5 -38.07)"/><path class="cls-3" d="M144.84,105.5s11.09-12.25,20.89-12.25,18.86,12.25,18.86,12.25-2.44-2.33-9.44-5.83-11.67-3.5-19.84,0S144.84,105.5,144.84,105.5Z" transform="translate(-61.5 -38.07)"/><path class="cls-3" d="M90,104.33s11.09-12.25,20.89-12.25,18.86,12.25,18.86,12.25-2.44-2.33-9.44-5.83-11.67-3.5-19.84,0S90,104.33,90,104.33Z" transform="translate(-61.5 -38.07)"/><text class="cls-4" transform="translate(14.41 152.18)">EDU<tspan class="cls-5" x="80.78" y="0">C</tspan><tspan class="cls-6" x="103.67" y="0">A</tspan><tspan class="cls-7" x="131.19" y="0">T</tspan></text><path class="cls-8" d="M182.64,74.22S197.27,80,199,104c0,0,.11-7.53-5.61-17.51S182.64,74.22,182.64,74.22Z" transform="translate(-61.5 -38.07)"/><path class="cls-8" d="M142,113a4,4,0,0,1-8,0c0-2.21,2.15-2.55,4.36-2.55S142,110.79,142,113Z" transform="translate(-61.5 -38.07)"/><path d="M175.9,110.86a1.5,1.5,0,0,0,0-3,1.5,1.5,0,0,0,0,3Z" transform="translate(-61.5 -38.07)"/><path class="cls-1" d="M172.66,111.65a43.52,43.52,0,0,1,37.26.24c1.73.85,3.25-1.74,1.52-2.59a46.8,46.8,0,0,0-40.3-.24c-1.74.83-.22,3.42,1.52,2.59Z" transform="translate(-61.5 -38.07)"/><path class="cls-1" d="M167.66,120.65a43.52,43.52,0,0,1,37.26.24c1.73.85,3.25-1.74,1.52-2.59a46.8,46.8,0,0,0-40.3-.24c-1.74.83-.22,3.42,1.52,2.59Z" transform="translate(-61.5 -38.07)"/><path class="cls-1" d="M108.44,110.06a46.8,46.8,0,0,0-40.3.24c-1.73.85-.21,3.44,1.52,2.59a43.52,43.52,0,0,1,37.26-.24c1.74.83,3.26-1.76,1.52-2.59Z" transform="translate(-61.5 -38.07)"/><path class="cls-1" d="M110.44,120.06a46.8,46.8,0,0,0-40.3.24c-1.73.85-.21,3.44,1.52,2.59a43.52,43.52,0,0,1,37.26-.24c1.74.83,3.26-1.76,1.52-2.59Z" transform="translate(-61.5 -38.07)"/></svg>