<?xml version="1.0" encoding="utf-8"?>
<!-- Generator: Adobe Illustrator 26.0.1, SVG Export Plug-In . SVG Version: 6.00 Build 0)  -->
<svg version="1.1" id="Calque_1" xmlns="http://www.w3.org/2000/svg" xmlns:xlink="http://www.w3.org/1999/xlink" x="0px" y="0px"
	 viewBox="0 0 100 100" style="enable-background:new 0 0 100 100;" xml:space="preserve">
<style type="text/css">
	.st0{fill:#FFFFFF;}
</style>
<g>
	<path class="st0" d="M72.42,7.4H19.9c-8.38,0-15.17,6.8-15.17,15.18V71.3c0,8.38,6.79,15.18,15.17,15.18h52.53
		c8.37,0,15.16-6.79,15.16-15.16V22.58C87.59,14.2,80.8,7.4,72.42,7.4z M46.16,67.27c-11.22,0-20.33-9.1-20.33-20.33
		c0-11.23,9.11-20.33,20.33-20.33c11.23,0,20.34,9.1,20.34,20.33C66.5,58.17,57.39,67.27,46.16,67.27z M67.49,32.19
		c-3.77,0-6.83-3.06-6.83-6.83s3.06-6.82,6.83-6.82c3.77,0,6.83,3.05,6.83,6.82S71.26,32.19,67.49,32.19z"/>
</g>
<circle class="st0" cx="44.4" cy="46.94" r="11.51"/>
</svg>
