<?xml version="1.0" encoding="utf-8"?>
<!-- Generator: Adobe Illustrator 26.0.1, SVG Export Plug-In . SVG Version: 6.00 Build 0)  -->
<svg version="1.1" id="Calque_1" xmlns="http://www.w3.org/2000/svg" xmlns:xlink="http://www.w3.org/1999/xlink" x="0px" y="0px"
	 viewBox="0 0 100 100" style="enable-background:new 0 0 100 100;" xml:space="preserve">
<style type="text/css">
	.st0{fill:#FFFFFF;}
</style>
<path class="st0" d="M96.98,22.6L96.98,22.6c0,0.52-0.4,0.94-0.89,0.94h-7.15c-0.18,0-0.36,0.06-0.51,0.17L50.87,50.79
	c-0.31,0.22-0.71,0.22-1.01,0L12.29,23.71c-0.15-0.11-0.33-0.16-0.51-0.16H3.92c-0.49,0-0.89-0.42-0.89-0.94v-0.01
	c0-4.65,3.6-8.42,8.03-8.42h77.88C93.38,14.17,96.98,17.95,96.98,22.6z"/>
<polygon class="st0" points="88.65,23.54 50.36,51.16 12.06,23.54 "/>
<path class="st0" d="M92.68,32.66c2.38,0,4.3,2.02,4.3,4.51v38.95c0,3.67-2.85,6.66-6.37,6.66H9.39c-3.52,0-6.37-2.99-6.37-6.66
	V37.17c0-2.49,1.93-4.51,4.3-4.51h0.73c0.87,0,1.72,0.28,2.44,0.79L47.8,60.36c0.78,0.56,1.68,0.8,2.56,0.74
	c0.89,0.06,1.78-0.18,2.56-0.74l37.31-26.91C90.95,32.94,91.8,32.66,92.68,32.66L92.68,32.66z"/>
</svg>
